<mxfile host="app.diagrams.net" modified="2023-07-13T02:52:38.898Z" agent="Mozilla/5.0 (Windows NT 10.0; Win64; x64) AppleWebKit/537.36 (KHTML, like Gecko) Chrome/114.0.0.0 Safari/537.36" etag="yDuDAaSNNHF0gIIlAk5p" version="21.6.1" type="device">
  <diagram id="sE0JnNRs7EjlEfFb4s6e" name="Page-1">
    <mxGraphModel dx="2868" dy="5035" grid="1" gridSize="10" guides="1" tooltips="1" connect="1" arrows="1" fold="1" page="1" pageScale="3" pageWidth="827" pageHeight="1169" math="0" shadow="0">
      <root>
        <mxCell id="0" />
        <mxCell id="1" parent="0" />
        <mxCell id="jpRytGc2sCLHn_rGHx_D-99" style="edgeStyle=orthogonalEdgeStyle;shape=connector;rounded=0;orthogonalLoop=1;jettySize=auto;html=1;labelBackgroundColor=default;strokeColor=default;fontFamily=Helvetica;fontSize=11;fontColor=default;endArrow=none;endFill=0;entryX=0;entryY=0.5;entryDx=0;entryDy=0;" parent="1" source="jpRytGc2sCLHn_rGHx_D-67" target="jpRytGc2sCLHn_rGHx_D-100" edge="1">
          <mxGeometry relative="1" as="geometry">
            <mxPoint x="3780" y="-560" as="targetPoint" />
          </mxGeometry>
        </mxCell>
        <mxCell id="jpRytGc2sCLHn_rGHx_D-67" value="User" style="rounded=0;whiteSpace=wrap;html=1;fillColor=#d5e8d4;strokeColor=#82b366;" parent="1" vertex="1">
          <mxGeometry x="3380" y="-590" width="120" height="60" as="geometry" />
        </mxCell>
        <mxCell id="jpRytGc2sCLHn_rGHx_D-193" style="edgeStyle=orthogonalEdgeStyle;shape=connector;rounded=0;orthogonalLoop=1;jettySize=auto;html=1;entryX=0;entryY=1;entryDx=0;entryDy=0;labelBackgroundColor=default;strokeColor=default;fontFamily=Helvetica;fontSize=11;fontColor=default;endArrow=none;endFill=0;" parent="1" source="jpRytGc2sCLHn_rGHx_D-68" target="jpRytGc2sCLHn_rGHx_D-67" edge="1">
          <mxGeometry relative="1" as="geometry" />
        </mxCell>
        <mxCell id="jpRytGc2sCLHn_rGHx_D-68" value="curso_aluno" style="ellipse;whiteSpace=wrap;html=1;fillColor=#f5f5f5;fontColor=#333333;strokeColor=#666666;fontStyle=0" parent="1" vertex="1">
          <mxGeometry x="3190" y="-470" width="100" height="60" as="geometry" />
        </mxCell>
        <mxCell id="jpRytGc2sCLHn_rGHx_D-95" style="edgeStyle=orthogonalEdgeStyle;shape=connector;rounded=0;orthogonalLoop=1;jettySize=auto;html=1;labelBackgroundColor=default;strokeColor=default;fontFamily=Helvetica;fontSize=11;fontColor=default;endArrow=none;endFill=0;entryX=0.308;entryY=1.078;entryDx=0;entryDy=0;entryPerimeter=0;" parent="1" source="jpRytGc2sCLHn_rGHx_D-69" target="jpRytGc2sCLHn_rGHx_D-67" edge="1">
          <mxGeometry relative="1" as="geometry" />
        </mxCell>
        <mxCell id="jpRytGc2sCLHn_rGHx_D-69" value="is_admin" style="ellipse;whiteSpace=wrap;html=1;fillColor=#f5f5f5;fontColor=#333333;strokeColor=#666666;fontStyle=0" parent="1" vertex="1">
          <mxGeometry x="3231" y="-330" width="100" height="60" as="geometry" />
        </mxCell>
        <mxCell id="jpRytGc2sCLHn_rGHx_D-96" style="edgeStyle=orthogonalEdgeStyle;shape=connector;rounded=0;orthogonalLoop=1;jettySize=auto;html=1;labelBackgroundColor=default;strokeColor=default;fontFamily=Helvetica;fontSize=11;fontColor=default;endArrow=none;endFill=0;" parent="1" source="jpRytGc2sCLHn_rGHx_D-70" target="jpRytGc2sCLHn_rGHx_D-67" edge="1">
          <mxGeometry relative="1" as="geometry" />
        </mxCell>
        <mxCell id="jpRytGc2sCLHn_rGHx_D-70" value="profile_picture" style="ellipse;whiteSpace=wrap;html=1;fillColor=#f5f5f5;fontColor=#333333;strokeColor=#666666;fontStyle=0" parent="1" vertex="1">
          <mxGeometry x="3430" y="-300" width="100" height="60" as="geometry" />
        </mxCell>
        <mxCell id="jpRytGc2sCLHn_rGHx_D-92" style="edgeStyle=orthogonalEdgeStyle;shape=connector;rounded=0;orthogonalLoop=1;jettySize=auto;html=1;labelBackgroundColor=default;strokeColor=default;fontFamily=Helvetica;fontSize=11;fontColor=default;endArrow=none;endFill=0;" parent="1" source="jpRytGc2sCLHn_rGHx_D-71" target="jpRytGc2sCLHn_rGHx_D-67" edge="1">
          <mxGeometry relative="1" as="geometry" />
        </mxCell>
        <mxCell id="jpRytGc2sCLHn_rGHx_D-71" value="password" style="ellipse;whiteSpace=wrap;html=1;fillColor=#f5f5f5;fontColor=#333333;strokeColor=#666666;fontStyle=0" parent="1" vertex="1">
          <mxGeometry x="3390" y="-774" width="100" height="60" as="geometry" />
        </mxCell>
        <mxCell id="jpRytGc2sCLHn_rGHx_D-93" style="edgeStyle=orthogonalEdgeStyle;shape=connector;rounded=0;orthogonalLoop=1;jettySize=auto;html=1;labelBackgroundColor=default;strokeColor=default;fontFamily=Helvetica;fontSize=11;fontColor=default;endArrow=none;endFill=0;exitX=0.569;exitY=1.005;exitDx=0;exitDy=0;exitPerimeter=0;" parent="1" source="jpRytGc2sCLHn_rGHx_D-72" edge="1">
          <mxGeometry relative="1" as="geometry">
            <mxPoint x="3480" y="-800" as="sourcePoint" />
            <mxPoint x="3459.9565217391305" y="-590" as="targetPoint" />
          </mxGeometry>
        </mxCell>
        <mxCell id="jpRytGc2sCLHn_rGHx_D-72" value="user_email" style="ellipse;whiteSpace=wrap;html=1;fillColor=#f5f5f5;fontColor=#333333;strokeColor=#666666;fontStyle=0" parent="1" vertex="1">
          <mxGeometry x="3540" y="-760" width="100" height="60" as="geometry" />
        </mxCell>
        <mxCell id="jpRytGc2sCLHn_rGHx_D-89" style="edgeStyle=orthogonalEdgeStyle;rounded=0;orthogonalLoop=1;jettySize=auto;html=1;endArrow=none;endFill=0;" parent="1" source="jpRytGc2sCLHn_rGHx_D-73" target="jpRytGc2sCLHn_rGHx_D-67" edge="1">
          <mxGeometry relative="1" as="geometry">
            <Array as="points">
              <mxPoint x="3410" y="-640" />
            </Array>
          </mxGeometry>
        </mxCell>
        <mxCell id="jpRytGc2sCLHn_rGHx_D-73" value="creation_date" style="ellipse;whiteSpace=wrap;html=1;fillColor=#f5f5f5;fontColor=#333333;strokeColor=#666666;fontStyle=0" parent="1" vertex="1">
          <mxGeometry x="3306" y="-700" width="100" height="60" as="geometry" />
        </mxCell>
        <mxCell id="jpRytGc2sCLHn_rGHx_D-98" style="edgeStyle=orthogonalEdgeStyle;shape=connector;rounded=0;orthogonalLoop=1;jettySize=auto;html=1;entryX=1.003;entryY=0.353;entryDx=0;entryDy=0;entryPerimeter=0;labelBackgroundColor=default;strokeColor=default;fontFamily=Helvetica;fontSize=11;fontColor=default;endArrow=none;endFill=0;" parent="1" source="jpRytGc2sCLHn_rGHx_D-74" target="jpRytGc2sCLHn_rGHx_D-67" edge="1">
          <mxGeometry relative="1" as="geometry" />
        </mxCell>
        <mxCell id="jpRytGc2sCLHn_rGHx_D-74" value="&lt;u&gt;Matricula&lt;/u&gt;" style="ellipse;whiteSpace=wrap;html=1;fillColor=#f5f5f5;fontColor=#333333;strokeColor=#666666;fontStyle=0" parent="1" vertex="1">
          <mxGeometry x="3610" y="-640" width="100" height="60" as="geometry" />
        </mxCell>
        <mxCell id="jpRytGc2sCLHn_rGHx_D-97" style="edgeStyle=orthogonalEdgeStyle;shape=connector;rounded=0;orthogonalLoop=1;jettySize=auto;html=1;entryX=0.75;entryY=1;entryDx=0;entryDy=0;labelBackgroundColor=default;strokeColor=default;fontFamily=Helvetica;fontSize=11;fontColor=default;endArrow=none;endFill=0;" parent="1" source="jpRytGc2sCLHn_rGHx_D-75" target="jpRytGc2sCLHn_rGHx_D-67" edge="1">
          <mxGeometry relative="1" as="geometry" />
        </mxCell>
        <mxCell id="jpRytGc2sCLHn_rGHx_D-75" value="user_name" style="ellipse;whiteSpace=wrap;html=1;fillColor=#f5f5f5;fontColor=#333333;strokeColor=#666666;fontStyle=0" parent="1" vertex="1">
          <mxGeometry x="3480" y="-480" width="100" height="60" as="geometry" />
        </mxCell>
        <mxCell id="jpRytGc2sCLHn_rGHx_D-101" style="edgeStyle=orthogonalEdgeStyle;shape=connector;rounded=0;orthogonalLoop=1;jettySize=auto;html=1;labelBackgroundColor=default;strokeColor=default;fontFamily=Helvetica;fontSize=11;fontColor=default;endArrow=none;endFill=0;entryX=0;entryY=0.5;entryDx=0;entryDy=0;" parent="1" source="jpRytGc2sCLHn_rGHx_D-100" target="jpRytGc2sCLHn_rGHx_D-102" edge="1">
          <mxGeometry relative="1" as="geometry">
            <mxPoint x="4170" y="-560" as="targetPoint" />
          </mxGeometry>
        </mxCell>
        <mxCell id="jpRytGc2sCLHn_rGHx_D-100" value="Possui" style="rhombus;whiteSpace=wrap;html=1;fillColor=#ffe6cc;strokeColor=#d79b00;" parent="1" vertex="1">
          <mxGeometry x="3770" y="-600" width="150" height="80" as="geometry" />
        </mxCell>
        <mxCell id="jpRytGc2sCLHn_rGHx_D-102" value="Image" style="rounded=0;whiteSpace=wrap;html=1;fillColor=#d5e8d4;strokeColor=#82b366;" parent="1" vertex="1">
          <mxGeometry x="4150" y="-590" width="120" height="60" as="geometry" />
        </mxCell>
        <mxCell id="jpRytGc2sCLHn_rGHx_D-104" style="edgeStyle=orthogonalEdgeStyle;shape=connector;rounded=0;orthogonalLoop=1;jettySize=auto;html=1;entryX=0.425;entryY=-0.025;entryDx=0;entryDy=0;entryPerimeter=0;labelBackgroundColor=default;strokeColor=default;fontFamily=Helvetica;fontSize=11;fontColor=default;endArrow=none;endFill=0;" parent="1" source="jpRytGc2sCLHn_rGHx_D-103" target="jpRytGc2sCLHn_rGHx_D-102" edge="1">
          <mxGeometry relative="1" as="geometry" />
        </mxCell>
        <mxCell id="jpRytGc2sCLHn_rGHx_D-103" value="&lt;u&gt;iamge_id&lt;/u&gt;" style="ellipse;whiteSpace=wrap;html=1;fillColor=#f5f5f5;fontColor=#333333;strokeColor=#666666;fontStyle=0" parent="1" vertex="1">
          <mxGeometry x="4170" y="-800" width="100" height="60" as="geometry" />
        </mxCell>
        <mxCell id="jpRytGc2sCLHn_rGHx_D-105" style="edgeStyle=orthogonalEdgeStyle;shape=connector;rounded=0;orthogonalLoop=1;jettySize=auto;html=1;entryX=1;entryY=0.25;entryDx=0;entryDy=0;labelBackgroundColor=default;strokeColor=default;fontFamily=Helvetica;fontSize=11;fontColor=default;endArrow=none;endFill=0;" parent="1" source="jpRytGc2sCLHn_rGHx_D-106" target="jpRytGc2sCLHn_rGHx_D-102" edge="1">
          <mxGeometry relative="1" as="geometry">
            <mxPoint x="4491" y="-530" as="targetPoint" />
          </mxGeometry>
        </mxCell>
        <mxCell id="jpRytGc2sCLHn_rGHx_D-106" value="file_name" style="ellipse;whiteSpace=wrap;html=1;fillColor=#f5f5f5;fontColor=#333333;strokeColor=#666666;fontStyle=0" parent="1" vertex="1">
          <mxGeometry x="4460" y="-610" width="100" height="60" as="geometry" />
        </mxCell>
        <mxCell id="jpRytGc2sCLHn_rGHx_D-107" style="edgeStyle=orthogonalEdgeStyle;shape=connector;rounded=0;orthogonalLoop=1;jettySize=auto;html=1;entryX=1;entryY=0.75;entryDx=0;entryDy=0;labelBackgroundColor=default;strokeColor=default;fontFamily=Helvetica;fontSize=11;fontColor=default;endArrow=none;endFill=0;" parent="1" source="jpRytGc2sCLHn_rGHx_D-108" target="jpRytGc2sCLHn_rGHx_D-102" edge="1">
          <mxGeometry relative="1" as="geometry">
            <mxPoint x="4471" y="-261" as="targetPoint" />
          </mxGeometry>
        </mxCell>
        <mxCell id="jpRytGc2sCLHn_rGHx_D-108" value="mime_type" style="ellipse;whiteSpace=wrap;html=1;fillColor=#f5f5f5;fontColor=#333333;strokeColor=#666666;fontStyle=0" parent="1" vertex="1">
          <mxGeometry x="4440" y="-470" width="100" height="60" as="geometry" />
        </mxCell>
        <mxCell id="jpRytGc2sCLHn_rGHx_D-109" style="edgeStyle=orthogonalEdgeStyle;shape=connector;rounded=0;orthogonalLoop=1;jettySize=auto;html=1;labelBackgroundColor=default;strokeColor=default;fontFamily=Helvetica;fontSize=11;fontColor=default;endArrow=none;endFill=0;" parent="1" source="jpRytGc2sCLHn_rGHx_D-110" target="jpRytGc2sCLHn_rGHx_D-102" edge="1">
          <mxGeometry relative="1" as="geometry">
            <mxPoint x="4281" y="-251" as="targetPoint" />
          </mxGeometry>
        </mxCell>
        <mxCell id="jpRytGc2sCLHn_rGHx_D-110" value="created_at" style="ellipse;whiteSpace=wrap;html=1;fillColor=#f5f5f5;fontColor=#333333;strokeColor=#666666;fontStyle=0" parent="1" vertex="1">
          <mxGeometry x="4250" y="-460" width="100" height="60" as="geometry" />
        </mxCell>
        <mxCell id="jpRytGc2sCLHn_rGHx_D-111" style="edgeStyle=orthogonalEdgeStyle;shape=connector;rounded=0;orthogonalLoop=1;jettySize=auto;html=1;entryX=1;entryY=0;entryDx=0;entryDy=0;labelBackgroundColor=default;strokeColor=default;fontFamily=Helvetica;fontSize=11;fontColor=default;endArrow=none;endFill=0;" parent="1" source="jpRytGc2sCLHn_rGHx_D-112" target="jpRytGc2sCLHn_rGHx_D-102" edge="1">
          <mxGeometry relative="1" as="geometry">
            <mxPoint x="4351" y="-591" as="targetPoint" />
          </mxGeometry>
        </mxCell>
        <mxCell id="jpRytGc2sCLHn_rGHx_D-112" value="data" style="ellipse;whiteSpace=wrap;html=1;fillColor=#f5f5f5;fontColor=#333333;strokeColor=#666666;fontStyle=0" parent="1" vertex="1">
          <mxGeometry x="4400" y="-700" width="100" height="60" as="geometry" />
        </mxCell>
        <mxCell id="jpRytGc2sCLHn_rGHx_D-113" value="1" style="text;html=1;strokeColor=none;fillColor=none;align=center;verticalAlign=middle;whiteSpace=wrap;rounded=0;" parent="1" vertex="1">
          <mxGeometry x="3910" y="-595" width="60" height="30" as="geometry" />
        </mxCell>
        <mxCell id="jpRytGc2sCLHn_rGHx_D-114" value="N" style="text;html=1;strokeColor=none;fillColor=none;align=center;verticalAlign=middle;whiteSpace=wrap;rounded=0;" parent="1" vertex="1">
          <mxGeometry x="3720" y="-595" width="60" height="30" as="geometry" />
        </mxCell>
        <mxCell id="jpRytGc2sCLHn_rGHx_D-115" value="Departamento&lt;br&gt;" style="rounded=0;whiteSpace=wrap;html=1;fillColor=#d5e8d4;strokeColor=#82b366;" parent="1" vertex="1">
          <mxGeometry x="2076" y="-1900" width="120" height="60" as="geometry" />
        </mxCell>
        <mxCell id="jpRytGc2sCLHn_rGHx_D-118" style="edgeStyle=orthogonalEdgeStyle;shape=connector;rounded=0;orthogonalLoop=1;jettySize=auto;html=1;labelBackgroundColor=default;strokeColor=default;fontFamily=Helvetica;fontSize=11;fontColor=default;endArrow=none;endFill=0;entryX=0.25;entryY=0;entryDx=0;entryDy=0;" parent="1" source="jpRytGc2sCLHn_rGHx_D-119" target="jpRytGc2sCLHn_rGHx_D-115" edge="1">
          <mxGeometry relative="1" as="geometry">
            <mxPoint x="2113" y="-1900" as="targetPoint" />
          </mxGeometry>
        </mxCell>
        <mxCell id="jpRytGc2sCLHn_rGHx_D-119" value="&lt;u&gt;&lt;font style=&quot;font-size: 14px;&quot;&gt;departamento_id&lt;/font&gt;&lt;/u&gt;" style="ellipse;whiteSpace=wrap;html=1;fillColor=#f5f5f5;fontColor=#333333;strokeColor=#666666;fontStyle=0" parent="1" vertex="1">
          <mxGeometry x="2046" y="-2060" width="110" height="70" as="geometry" />
        </mxCell>
        <mxCell id="jpRytGc2sCLHn_rGHx_D-132" style="edgeStyle=orthogonalEdgeStyle;shape=connector;rounded=0;orthogonalLoop=1;jettySize=auto;html=1;entryX=0.75;entryY=0;entryDx=0;entryDy=0;labelBackgroundColor=default;strokeColor=default;fontFamily=Helvetica;fontSize=11;fontColor=default;endArrow=none;endFill=0;" parent="1" source="jpRytGc2sCLHn_rGHx_D-131" target="jpRytGc2sCLHn_rGHx_D-115" edge="1">
          <mxGeometry relative="1" as="geometry" />
        </mxCell>
        <mxCell id="jpRytGc2sCLHn_rGHx_D-131" value="&lt;font style=&quot;font-size: 14px;&quot;&gt;departamento_nome&lt;/font&gt;" style="ellipse;whiteSpace=wrap;html=1;fillColor=#f5f5f5;fontColor=#333333;strokeColor=#666666;fontStyle=0" parent="1" vertex="1">
          <mxGeometry x="2186" y="-2050" width="120" height="80" as="geometry" />
        </mxCell>
        <mxCell id="jpRytGc2sCLHn_rGHx_D-138" value="Professor" style="rounded=0;whiteSpace=wrap;html=1;fillColor=#d5e8d4;strokeColor=#82b366;" parent="1" vertex="1">
          <mxGeometry x="3126" y="-1825" width="120" height="60" as="geometry" />
        </mxCell>
        <mxCell id="jpRytGc2sCLHn_rGHx_D-139" style="edgeStyle=orthogonalEdgeStyle;shape=connector;rounded=0;orthogonalLoop=1;jettySize=auto;html=1;labelBackgroundColor=default;strokeColor=default;fontFamily=Helvetica;fontSize=11;fontColor=default;endArrow=none;endFill=0;entryX=0.25;entryY=0;entryDx=0;entryDy=0;" parent="1" source="jpRytGc2sCLHn_rGHx_D-140" target="jpRytGc2sCLHn_rGHx_D-138" edge="1">
          <mxGeometry relative="1" as="geometry">
            <mxPoint x="3163" y="-1825" as="targetPoint" />
          </mxGeometry>
        </mxCell>
        <mxCell id="jpRytGc2sCLHn_rGHx_D-140" value="&lt;u&gt;&lt;font style=&quot;font-size: 14px;&quot;&gt;professor_id&lt;/font&gt;&lt;/u&gt;" style="ellipse;whiteSpace=wrap;html=1;fillColor=#f5f5f5;fontColor=#333333;strokeColor=#666666;fontStyle=0" parent="1" vertex="1">
          <mxGeometry x="3096" y="-1985" width="110" height="70" as="geometry" />
        </mxCell>
        <mxCell id="jpRytGc2sCLHn_rGHx_D-141" style="edgeStyle=orthogonalEdgeStyle;shape=connector;rounded=0;orthogonalLoop=1;jettySize=auto;html=1;entryX=0.75;entryY=0;entryDx=0;entryDy=0;labelBackgroundColor=default;strokeColor=default;fontFamily=Helvetica;fontSize=11;fontColor=default;endArrow=none;endFill=0;" parent="1" source="jpRytGc2sCLHn_rGHx_D-142" target="jpRytGc2sCLHn_rGHx_D-138" edge="1">
          <mxGeometry relative="1" as="geometry" />
        </mxCell>
        <mxCell id="jpRytGc2sCLHn_rGHx_D-142" value="&lt;font style=&quot;font-size: 14px;&quot;&gt;professor_name&lt;/font&gt;" style="ellipse;whiteSpace=wrap;html=1;fillColor=#f5f5f5;fontColor=#333333;strokeColor=#666666;fontStyle=0" parent="1" vertex="1">
          <mxGeometry x="3236" y="-1975" width="120" height="80" as="geometry" />
        </mxCell>
        <mxCell id="jpRytGc2sCLHn_rGHx_D-167" style="edgeStyle=orthogonalEdgeStyle;shape=connector;rounded=0;orthogonalLoop=1;jettySize=auto;html=1;entryX=0;entryY=0.5;entryDx=0;entryDy=0;labelBackgroundColor=default;strokeColor=default;fontFamily=Helvetica;fontSize=11;fontColor=default;endArrow=none;endFill=0;exitX=0.5;exitY=1;exitDx=0;exitDy=0;" parent="1" source="jpRytGc2sCLHn_rGHx_D-146" target="jpRytGc2sCLHn_rGHx_D-166" edge="1">
          <mxGeometry relative="1" as="geometry" />
        </mxCell>
        <mxCell id="jpRytGc2sCLHn_rGHx_D-146" value="Disciplina" style="rounded=0;whiteSpace=wrap;html=1;fillColor=#d5e8d4;strokeColor=#82b366;" parent="1" vertex="1">
          <mxGeometry x="2086" y="-1415" width="120" height="60" as="geometry" />
        </mxCell>
        <mxCell id="jpRytGc2sCLHn_rGHx_D-147" style="edgeStyle=orthogonalEdgeStyle;shape=connector;rounded=0;orthogonalLoop=1;jettySize=auto;html=1;labelBackgroundColor=default;strokeColor=default;fontFamily=Helvetica;fontSize=11;fontColor=default;endArrow=none;endFill=0;entryX=0.25;entryY=0;entryDx=0;entryDy=0;" parent="1" source="jpRytGc2sCLHn_rGHx_D-148" target="jpRytGc2sCLHn_rGHx_D-146" edge="1">
          <mxGeometry relative="1" as="geometry">
            <mxPoint x="2123" y="-1415" as="targetPoint" />
          </mxGeometry>
        </mxCell>
        <mxCell id="jpRytGc2sCLHn_rGHx_D-148" value="&lt;u&gt;disciplina_id&lt;/u&gt;" style="ellipse;whiteSpace=wrap;html=1;fillColor=#f5f5f5;fontColor=#333333;strokeColor=#666666;fontStyle=0" parent="1" vertex="1">
          <mxGeometry x="1810" y="-1325" width="110" height="70" as="geometry" />
        </mxCell>
        <mxCell id="jpRytGc2sCLHn_rGHx_D-149" style="edgeStyle=orthogonalEdgeStyle;shape=connector;rounded=0;orthogonalLoop=1;jettySize=auto;html=1;entryX=0.75;entryY=0;entryDx=0;entryDy=0;labelBackgroundColor=default;strokeColor=default;fontFamily=Helvetica;fontSize=11;fontColor=default;endArrow=none;endFill=0;" parent="1" source="jpRytGc2sCLHn_rGHx_D-150" target="jpRytGc2sCLHn_rGHx_D-146" edge="1">
          <mxGeometry relative="1" as="geometry" />
        </mxCell>
        <mxCell id="jpRytGc2sCLHn_rGHx_D-150" value="&lt;font style=&quot;font-size: 14px;&quot;&gt;dsiciplina_nome&lt;/font&gt;" style="ellipse;whiteSpace=wrap;html=1;fillColor=#f5f5f5;fontColor=#333333;strokeColor=#666666;fontStyle=0" parent="1" vertex="1">
          <mxGeometry x="1880" y="-1635" width="120" height="80" as="geometry" />
        </mxCell>
        <mxCell id="jpRytGc2sCLHn_rGHx_D-164" style="edgeStyle=orthogonalEdgeStyle;shape=connector;rounded=0;orthogonalLoop=1;jettySize=auto;html=1;entryX=1;entryY=1;entryDx=0;entryDy=0;labelBackgroundColor=default;strokeColor=default;fontFamily=Helvetica;fontSize=11;fontColor=default;endArrow=none;endFill=0;" parent="1" source="jpRytGc2sCLHn_rGHx_D-151" target="jpRytGc2sCLHn_rGHx_D-156" edge="1">
          <mxGeometry relative="1" as="geometry">
            <Array as="points">
              <mxPoint x="2599" y="-1250" />
            </Array>
          </mxGeometry>
        </mxCell>
        <mxCell id="jpRytGc2sCLHn_rGHx_D-189" style="edgeStyle=orthogonalEdgeStyle;shape=connector;rounded=0;orthogonalLoop=1;jettySize=auto;html=1;entryX=0.5;entryY=0;entryDx=0;entryDy=0;labelBackgroundColor=default;strokeColor=default;fontFamily=Helvetica;fontSize=11;fontColor=default;endArrow=none;endFill=0;" parent="1" source="jpRytGc2sCLHn_rGHx_D-151" target="jpRytGc2sCLHn_rGHx_D-188" edge="1">
          <mxGeometry relative="1" as="geometry" />
        </mxCell>
        <mxCell id="jpRytGc2sCLHn_rGHx_D-151" value="Turma" style="rounded=0;whiteSpace=wrap;html=1;fillColor=#d5e8d4;strokeColor=#82b366;" parent="1" vertex="1">
          <mxGeometry x="2790" y="-1255" width="120" height="60" as="geometry" />
        </mxCell>
        <mxCell id="jpRytGc2sCLHn_rGHx_D-152" style="edgeStyle=orthogonalEdgeStyle;shape=connector;rounded=0;orthogonalLoop=1;jettySize=auto;html=1;labelBackgroundColor=default;strokeColor=default;fontFamily=Helvetica;fontSize=11;fontColor=default;endArrow=none;endFill=0;entryX=1;entryY=0.5;entryDx=0;entryDy=0;" parent="1" source="jpRytGc2sCLHn_rGHx_D-153" target="jpRytGc2sCLHn_rGHx_D-151" edge="1">
          <mxGeometry relative="1" as="geometry">
            <mxPoint x="3023" y="-1315" as="targetPoint" />
          </mxGeometry>
        </mxCell>
        <mxCell id="jpRytGc2sCLHn_rGHx_D-153" value="&lt;u&gt;turma_id&lt;/u&gt;" style="ellipse;whiteSpace=wrap;html=1;fillColor=#f5f5f5;fontColor=#333333;strokeColor=#666666;fontStyle=0" parent="1" vertex="1">
          <mxGeometry x="3226" y="-1290" width="110" height="70" as="geometry" />
        </mxCell>
        <mxCell id="jpRytGc2sCLHn_rGHx_D-154" style="edgeStyle=orthogonalEdgeStyle;shape=connector;rounded=0;orthogonalLoop=1;jettySize=auto;html=1;entryX=1;entryY=0.25;entryDx=0;entryDy=0;labelBackgroundColor=default;strokeColor=default;fontFamily=Helvetica;fontSize=11;fontColor=default;endArrow=none;endFill=0;" parent="1" source="jpRytGc2sCLHn_rGHx_D-155" target="jpRytGc2sCLHn_rGHx_D-151" edge="1">
          <mxGeometry relative="1" as="geometry" />
        </mxCell>
        <mxCell id="jpRytGc2sCLHn_rGHx_D-155" value="turma_periodo" style="ellipse;whiteSpace=wrap;html=1;fillColor=#f5f5f5;fontColor=#333333;strokeColor=#666666;fontStyle=0" parent="1" vertex="1">
          <mxGeometry x="3151" y="-1185" width="110" height="70" as="geometry" />
        </mxCell>
        <mxCell id="jpRytGc2sCLHn_rGHx_D-159" style="edgeStyle=orthogonalEdgeStyle;shape=connector;rounded=0;orthogonalLoop=1;jettySize=auto;html=1;entryX=0;entryY=0.5;entryDx=0;entryDy=0;labelBackgroundColor=default;strokeColor=default;fontFamily=Helvetica;fontSize=11;fontColor=default;endArrow=none;endFill=0;" parent="1" source="jpRytGc2sCLHn_rGHx_D-156" target="jpRytGc2sCLHn_rGHx_D-138" edge="1">
          <mxGeometry relative="1" as="geometry" />
        </mxCell>
        <mxCell id="jpRytGc2sCLHn_rGHx_D-160" style="edgeStyle=orthogonalEdgeStyle;shape=connector;rounded=0;orthogonalLoop=1;jettySize=auto;html=1;labelBackgroundColor=default;strokeColor=default;fontFamily=Helvetica;fontSize=11;fontColor=default;endArrow=none;endFill=0;" parent="1" source="jpRytGc2sCLHn_rGHx_D-156" target="jpRytGc2sCLHn_rGHx_D-115" edge="1">
          <mxGeometry relative="1" as="geometry" />
        </mxCell>
        <mxCell id="jpRytGc2sCLHn_rGHx_D-162" style="edgeStyle=orthogonalEdgeStyle;shape=connector;rounded=0;orthogonalLoop=1;jettySize=auto;html=1;exitX=0.5;exitY=1;exitDx=0;exitDy=0;entryX=1;entryY=0.5;entryDx=0;entryDy=0;labelBackgroundColor=default;strokeColor=default;fontFamily=Helvetica;fontSize=11;fontColor=default;endArrow=none;endFill=0;" parent="1" source="jpRytGc2sCLHn_rGHx_D-156" target="jpRytGc2sCLHn_rGHx_D-146" edge="1">
          <mxGeometry relative="1" as="geometry">
            <Array as="points">
              <mxPoint x="2561" y="-1395" />
              <mxPoint x="2206" y="-1395" />
            </Array>
          </mxGeometry>
        </mxCell>
        <mxCell id="jpRytGc2sCLHn_rGHx_D-156" value="Faz parte" style="rhombus;whiteSpace=wrap;html=1;fillColor=#ffe6cc;strokeColor=#d79b00;" parent="1" vertex="1">
          <mxGeometry x="2486" y="-1704" width="150" height="80" as="geometry" />
        </mxCell>
        <mxCell id="jpRytGc2sCLHn_rGHx_D-157" value="&lt;font style=&quot;font-size: 16px;&quot;&gt;1&lt;/font&gt;" style="text;html=1;strokeColor=none;fillColor=none;align=center;verticalAlign=middle;whiteSpace=wrap;rounded=0;" parent="1" vertex="1">
          <mxGeometry x="2451" y="-1695" width="60" height="30" as="geometry" />
        </mxCell>
        <mxCell id="jpRytGc2sCLHn_rGHx_D-158" value="&lt;font style=&quot;font-size: 16px;&quot;&gt;N&lt;/font&gt;" style="text;html=1;strokeColor=none;fillColor=none;align=center;verticalAlign=middle;whiteSpace=wrap;rounded=0;" parent="1" vertex="1">
          <mxGeometry x="2636" y="-1695" width="60" height="30" as="geometry" />
        </mxCell>
        <mxCell id="jpRytGc2sCLHn_rGHx_D-163" value="&lt;font style=&quot;font-size: 16px;&quot;&gt;N&lt;/font&gt;" style="text;html=1;strokeColor=none;fillColor=none;align=center;verticalAlign=middle;whiteSpace=wrap;rounded=0;" parent="1" vertex="1">
          <mxGeometry x="2516" y="-1624" width="60" height="30" as="geometry" />
        </mxCell>
        <mxCell id="jpRytGc2sCLHn_rGHx_D-165" value="&lt;font style=&quot;font-size: 16px;&quot;&gt;N&lt;/font&gt;" style="text;html=1;strokeColor=none;fillColor=none;align=center;verticalAlign=middle;whiteSpace=wrap;rounded=0;" parent="1" vertex="1">
          <mxGeometry x="2597" y="-1635" width="60" height="30" as="geometry" />
        </mxCell>
        <mxCell id="jpRytGc2sCLHn_rGHx_D-168" style="edgeStyle=orthogonalEdgeStyle;shape=connector;rounded=0;orthogonalLoop=1;jettySize=auto;html=1;entryX=0.25;entryY=1;entryDx=0;entryDy=0;labelBackgroundColor=default;strokeColor=default;fontFamily=Helvetica;fontSize=11;fontColor=default;endArrow=none;endFill=0;" parent="1" source="jpRytGc2sCLHn_rGHx_D-166" target="jpRytGc2sCLHn_rGHx_D-151" edge="1">
          <mxGeometry relative="1" as="geometry">
            <Array as="points">
              <mxPoint x="2673" y="-1185" />
              <mxPoint x="2673" y="-1175" />
              <mxPoint x="2820" y="-1175" />
            </Array>
          </mxGeometry>
        </mxCell>
        <mxCell id="jpRytGc2sCLHn_rGHx_D-166" value="ministrada em" style="rhombus;whiteSpace=wrap;html=1;fillColor=#ffe6cc;strokeColor=#d79b00;" parent="1" vertex="1">
          <mxGeometry x="2406" y="-1225" width="150" height="80" as="geometry" />
        </mxCell>
        <mxCell id="jpRytGc2sCLHn_rGHx_D-169" value="&lt;font style=&quot;font-size: 16px;&quot;&gt;N&lt;/font&gt;" style="text;html=1;strokeColor=none;fillColor=none;align=center;verticalAlign=middle;whiteSpace=wrap;rounded=0;" parent="1" vertex="1">
          <mxGeometry x="2546" y="-1220" width="60" height="30" as="geometry" />
        </mxCell>
        <mxCell id="jpRytGc2sCLHn_rGHx_D-170" value="&lt;font style=&quot;font-size: 16px;&quot;&gt;1&lt;/font&gt;" style="text;html=1;strokeColor=none;fillColor=none;align=center;verticalAlign=middle;whiteSpace=wrap;rounded=0;" parent="1" vertex="1">
          <mxGeometry x="2356" y="-1225" width="60" height="40" as="geometry" />
        </mxCell>
        <mxCell id="jpRytGc2sCLHn_rGHx_D-174" style="edgeStyle=orthogonalEdgeStyle;shape=connector;rounded=0;orthogonalLoop=1;jettySize=auto;html=1;entryX=0.5;entryY=1;entryDx=0;entryDy=0;labelBackgroundColor=default;strokeColor=default;fontFamily=Helvetica;fontSize=11;fontColor=default;endArrow=none;endFill=0;" parent="1" source="jpRytGc2sCLHn_rGHx_D-173" target="jpRytGc2sCLHn_rGHx_D-138" edge="1">
          <mxGeometry relative="1" as="geometry" />
        </mxCell>
        <mxCell id="jpRytGc2sCLHn_rGHx_D-175" style="edgeStyle=orthogonalEdgeStyle;shape=connector;rounded=0;orthogonalLoop=1;jettySize=auto;html=1;entryX=0.586;entryY=0.03;entryDx=0;entryDy=0;entryPerimeter=0;labelBackgroundColor=default;strokeColor=default;fontFamily=Helvetica;fontSize=11;fontColor=default;endArrow=none;endFill=0;" parent="1" source="jpRytGc2sCLHn_rGHx_D-173" target="jpRytGc2sCLHn_rGHx_D-151" edge="1">
          <mxGeometry relative="1" as="geometry" />
        </mxCell>
        <mxCell id="jpRytGc2sCLHn_rGHx_D-173" value="Ministra aula" style="rhombus;whiteSpace=wrap;html=1;fillColor=#ffe6cc;strokeColor=#d79b00;" parent="1" vertex="1">
          <mxGeometry x="2986" y="-1565" width="150" height="80" as="geometry" />
        </mxCell>
        <mxCell id="jpRytGc2sCLHn_rGHx_D-176" value="&lt;font style=&quot;font-size: 16px;&quot;&gt;N&lt;/font&gt;" style="text;html=1;strokeColor=none;fillColor=none;align=center;verticalAlign=middle;whiteSpace=wrap;rounded=0;" parent="1" vertex="1">
          <mxGeometry x="2926" y="-1520" width="60" height="30" as="geometry" />
        </mxCell>
        <mxCell id="jpRytGc2sCLHn_rGHx_D-177" value="&lt;font style=&quot;font-size: 16px;&quot;&gt;1&lt;/font&gt;" style="text;html=1;strokeColor=none;fillColor=none;align=center;verticalAlign=middle;whiteSpace=wrap;rounded=0;" parent="1" vertex="1">
          <mxGeometry x="3046" y="-1595" width="60" height="30" as="geometry" />
        </mxCell>
        <mxCell id="jpRytGc2sCLHn_rGHx_D-185" style="edgeStyle=orthogonalEdgeStyle;shape=connector;rounded=0;orthogonalLoop=1;jettySize=auto;html=1;entryX=0.5;entryY=0;entryDx=0;entryDy=0;labelBackgroundColor=default;strokeColor=default;fontFamily=Helvetica;fontSize=11;fontColor=default;endArrow=none;endFill=0;" parent="1" source="jpRytGc2sCLHn_rGHx_D-178" target="jpRytGc2sCLHn_rGHx_D-179" edge="1">
          <mxGeometry relative="1" as="geometry" />
        </mxCell>
        <mxCell id="jpRytGc2sCLHn_rGHx_D-190" style="edgeStyle=orthogonalEdgeStyle;shape=connector;rounded=0;orthogonalLoop=1;jettySize=auto;html=1;entryX=0.5;entryY=1;entryDx=0;entryDy=0;labelBackgroundColor=default;strokeColor=default;fontFamily=Helvetica;fontSize=11;fontColor=default;endArrow=none;endFill=0;" parent="1" source="jpRytGc2sCLHn_rGHx_D-178" target="jpRytGc2sCLHn_rGHx_D-188" edge="1">
          <mxGeometry relative="1" as="geometry" />
        </mxCell>
        <mxCell id="jpRytGc2sCLHn_rGHx_D-197" style="edgeStyle=orthogonalEdgeStyle;shape=connector;rounded=0;orthogonalLoop=1;jettySize=auto;html=1;entryX=0;entryY=0;entryDx=0;entryDy=0;labelBackgroundColor=default;strokeColor=default;fontFamily=Helvetica;fontSize=11;fontColor=default;endArrow=none;endFill=0;" parent="1" source="jpRytGc2sCLHn_rGHx_D-178" target="jpRytGc2sCLHn_rGHx_D-196" edge="1">
          <mxGeometry relative="1" as="geometry">
            <Array as="points">
              <mxPoint x="3063" y="-810" />
            </Array>
          </mxGeometry>
        </mxCell>
        <mxCell id="jpRytGc2sCLHn_rGHx_D-178" value="&lt;font style=&quot;font-size: 16px;&quot;&gt;Avaliação&lt;/font&gt;" style="rounded=0;whiteSpace=wrap;html=1;fillColor=#d5e8d4;strokeColor=#82b366;" parent="1" vertex="1">
          <mxGeometry x="2785" y="-850" width="120" height="60" as="geometry" />
        </mxCell>
        <mxCell id="jpRytGc2sCLHn_rGHx_D-184" style="edgeStyle=orthogonalEdgeStyle;shape=connector;rounded=0;orthogonalLoop=1;jettySize=auto;html=1;entryX=0.5;entryY=0;entryDx=0;entryDy=0;labelBackgroundColor=default;strokeColor=default;fontFamily=Helvetica;fontSize=11;fontColor=default;endArrow=none;endFill=0;" parent="1" source="jpRytGc2sCLHn_rGHx_D-179" target="jpRytGc2sCLHn_rGHx_D-183" edge="1">
          <mxGeometry relative="1" as="geometry" />
        </mxCell>
        <mxCell id="jpRytGc2sCLHn_rGHx_D-179" value="Possui" style="rhombus;whiteSpace=wrap;html=1;fillColor=#ffe6cc;strokeColor=#d79b00;" parent="1" vertex="1">
          <mxGeometry x="2770" y="-610" width="150" height="80" as="geometry" />
        </mxCell>
        <mxCell id="jpRytGc2sCLHn_rGHx_D-198" style="edgeStyle=orthogonalEdgeStyle;shape=connector;rounded=0;orthogonalLoop=1;jettySize=auto;html=1;entryX=0;entryY=1;entryDx=0;entryDy=0;labelBackgroundColor=default;strokeColor=default;fontFamily=Helvetica;fontSize=11;fontColor=default;endArrow=none;endFill=0;" parent="1" source="jpRytGc2sCLHn_rGHx_D-183" target="jpRytGc2sCLHn_rGHx_D-196" edge="1">
          <mxGeometry relative="1" as="geometry" />
        </mxCell>
        <mxCell id="jpRytGc2sCLHn_rGHx_D-214" style="edgeStyle=orthogonalEdgeStyle;shape=connector;rounded=0;orthogonalLoop=1;jettySize=auto;html=1;entryX=0;entryY=0.5;entryDx=0;entryDy=0;labelBackgroundColor=default;strokeColor=default;fontFamily=Helvetica;fontSize=11;fontColor=default;endArrow=none;endFill=0;" parent="1" source="jpRytGc2sCLHn_rGHx_D-183" target="jpRytGc2sCLHn_rGHx_D-212" edge="1">
          <mxGeometry relative="1" as="geometry">
            <Array as="points">
              <mxPoint x="2845" y="-330" />
              <mxPoint x="2700" y="-330" />
              <mxPoint x="2700" y="-170" />
            </Array>
          </mxGeometry>
        </mxCell>
        <mxCell id="jpRytGc2sCLHn_rGHx_D-183" value="&lt;font style=&quot;font-size: 16px;&quot;&gt;Denúncias&lt;/font&gt;" style="rounded=0;whiteSpace=wrap;html=1;fillColor=#d5e8d4;strokeColor=#82b366;" parent="1" vertex="1">
          <mxGeometry x="2785" y="-400" width="120" height="60" as="geometry" />
        </mxCell>
        <mxCell id="jpRytGc2sCLHn_rGHx_D-188" value="Possui" style="rhombus;whiteSpace=wrap;html=1;fillColor=#ffe6cc;strokeColor=#d79b00;" parent="1" vertex="1">
          <mxGeometry x="2770" y="-1040" width="150" height="80" as="geometry" />
        </mxCell>
        <mxCell id="jpRytGc2sCLHn_rGHx_D-191" value="&lt;font style=&quot;font-size: 16px;&quot;&gt;N&lt;/font&gt;" style="text;html=1;strokeColor=none;fillColor=none;align=center;verticalAlign=middle;whiteSpace=wrap;rounded=0;" parent="1" vertex="1">
          <mxGeometry x="2830" y="-960" width="60" height="30" as="geometry" />
        </mxCell>
        <mxCell id="jpRytGc2sCLHn_rGHx_D-192" value="&lt;font style=&quot;font-size: 16px;&quot;&gt;1&lt;/font&gt;" style="text;html=1;strokeColor=none;fillColor=none;align=center;verticalAlign=middle;whiteSpace=wrap;rounded=0;" parent="1" vertex="1">
          <mxGeometry x="2830" y="-1090" width="60" height="40" as="geometry" />
        </mxCell>
        <mxCell id="jpRytGc2sCLHn_rGHx_D-194" value="&lt;font style=&quot;font-size: 16px;&quot;&gt;N&lt;/font&gt;" style="text;html=1;strokeColor=none;fillColor=none;align=center;verticalAlign=middle;whiteSpace=wrap;rounded=0;" parent="1" vertex="1">
          <mxGeometry x="2840" y="-530" width="60" height="30" as="geometry" />
        </mxCell>
        <mxCell id="jpRytGc2sCLHn_rGHx_D-195" value="&lt;font style=&quot;font-size: 16px;&quot;&gt;1&lt;/font&gt;" style="text;html=1;strokeColor=none;fillColor=none;align=center;verticalAlign=middle;whiteSpace=wrap;rounded=0;" parent="1" vertex="1">
          <mxGeometry x="2840" y="-650" width="60" height="40" as="geometry" />
        </mxCell>
        <mxCell id="jpRytGc2sCLHn_rGHx_D-199" style="edgeStyle=orthogonalEdgeStyle;shape=connector;rounded=0;orthogonalLoop=1;jettySize=auto;html=1;entryX=0;entryY=0.25;entryDx=0;entryDy=0;labelBackgroundColor=default;strokeColor=default;fontFamily=Helvetica;fontSize=11;fontColor=default;endArrow=none;endFill=0;" parent="1" source="jpRytGc2sCLHn_rGHx_D-196" target="jpRytGc2sCLHn_rGHx_D-67" edge="1">
          <mxGeometry relative="1" as="geometry" />
        </mxCell>
        <mxCell id="jpRytGc2sCLHn_rGHx_D-196" value="&lt;font style=&quot;font-size: 16px;&quot;&gt;Realizado/ Possui&lt;/font&gt;" style="rhombus;whiteSpace=wrap;html=1;fillColor=#ffe6cc;strokeColor=#d79b00;" parent="1" vertex="1">
          <mxGeometry x="3020" y="-630" width="170" height="90" as="geometry" />
        </mxCell>
        <mxCell id="jpRytGc2sCLHn_rGHx_D-200" value="&lt;font style=&quot;font-size: 16px;&quot;&gt;1&lt;/font&gt;" style="text;html=1;strokeColor=none;fillColor=none;align=center;verticalAlign=middle;whiteSpace=wrap;rounded=0;" parent="1" vertex="1">
          <mxGeometry x="3176" y="-620" width="60" height="40" as="geometry" />
        </mxCell>
        <mxCell id="jpRytGc2sCLHn_rGHx_D-201" value="&lt;font style=&quot;font-size: 16px;&quot;&gt;N&lt;/font&gt;" style="text;html=1;strokeColor=none;fillColor=none;align=center;verticalAlign=middle;whiteSpace=wrap;rounded=0;" parent="1" vertex="1">
          <mxGeometry x="3010" y="-654" width="60" height="30" as="geometry" />
        </mxCell>
        <mxCell id="jpRytGc2sCLHn_rGHx_D-202" value="&lt;font style=&quot;font-size: 16px;&quot;&gt;N&lt;/font&gt;" style="text;html=1;strokeColor=none;fillColor=none;align=center;verticalAlign=middle;whiteSpace=wrap;rounded=0;" parent="1" vertex="1">
          <mxGeometry x="3010" y="-550" width="60" height="30" as="geometry" />
        </mxCell>
        <mxCell id="jpRytGc2sCLHn_rGHx_D-206" style="edgeStyle=orthogonalEdgeStyle;shape=connector;rounded=0;orthogonalLoop=1;jettySize=auto;html=1;entryX=0.25;entryY=0;entryDx=0;entryDy=0;labelBackgroundColor=default;strokeColor=default;fontFamily=Helvetica;fontSize=11;fontColor=default;endArrow=none;endFill=0;" parent="1" source="jpRytGc2sCLHn_rGHx_D-203" target="jpRytGc2sCLHn_rGHx_D-178" edge="1">
          <mxGeometry relative="1" as="geometry" />
        </mxCell>
        <mxCell id="jpRytGc2sCLHn_rGHx_D-203" value="&lt;u&gt;&lt;font style=&quot;font-size: 16px;&quot;&gt;avaliacao_id&lt;/font&gt;&lt;/u&gt;" style="ellipse;whiteSpace=wrap;html=1;fillColor=#f5f5f5;fontColor=#333333;strokeColor=#666666;fontStyle=0" parent="1" vertex="1">
          <mxGeometry x="2530" y="-950" width="120" height="80" as="geometry" />
        </mxCell>
        <mxCell id="jpRytGc2sCLHn_rGHx_D-207" style="edgeStyle=orthogonalEdgeStyle;shape=connector;rounded=0;orthogonalLoop=1;jettySize=auto;html=1;entryX=0;entryY=0.5;entryDx=0;entryDy=0;labelBackgroundColor=default;strokeColor=default;fontFamily=Helvetica;fontSize=11;fontColor=default;endArrow=none;endFill=0;" parent="1" source="jpRytGc2sCLHn_rGHx_D-205" target="jpRytGc2sCLHn_rGHx_D-178" edge="1">
          <mxGeometry relative="1" as="geometry" />
        </mxCell>
        <mxCell id="jpRytGc2sCLHn_rGHx_D-205" value="&lt;span style=&quot;font-size: 16px;&quot;&gt;avaliacao_descricao&lt;/span&gt;" style="ellipse;whiteSpace=wrap;html=1;fillColor=#f5f5f5;fontColor=#333333;strokeColor=#666666;fontStyle=0" parent="1" vertex="1">
          <mxGeometry x="2510" y="-824" width="174" height="110" as="geometry" />
        </mxCell>
        <mxCell id="jpRytGc2sCLHn_rGHx_D-211" style="edgeStyle=orthogonalEdgeStyle;shape=connector;rounded=0;orthogonalLoop=1;jettySize=auto;html=1;entryX=0;entryY=0.5;entryDx=0;entryDy=0;labelBackgroundColor=default;strokeColor=default;fontFamily=Helvetica;fontSize=11;fontColor=default;endArrow=none;endFill=0;" parent="1" source="jpRytGc2sCLHn_rGHx_D-210" target="jpRytGc2sCLHn_rGHx_D-183" edge="1">
          <mxGeometry relative="1" as="geometry" />
        </mxCell>
        <mxCell id="jpRytGc2sCLHn_rGHx_D-210" value="&lt;u&gt;&lt;font style=&quot;font-size: 16px;&quot;&gt;denuncia_id&lt;/font&gt;&lt;/u&gt;" style="ellipse;whiteSpace=wrap;html=1;fillColor=#f5f5f5;fontColor=#333333;strokeColor=#666666;fontStyle=0" parent="1" vertex="1">
          <mxGeometry x="2501" y="-430" width="120" height="80" as="geometry" />
        </mxCell>
        <mxCell id="jpRytGc2sCLHn_rGHx_D-213" style="edgeStyle=orthogonalEdgeStyle;shape=connector;rounded=0;orthogonalLoop=1;jettySize=auto;html=1;entryX=0;entryY=0.75;entryDx=0;entryDy=0;labelBackgroundColor=default;strokeColor=default;fontFamily=Helvetica;fontSize=11;fontColor=default;endArrow=none;endFill=0;exitX=1;exitY=0.5;exitDx=0;exitDy=0;" parent="1" source="jpRytGc2sCLHn_rGHx_D-212" target="jpRytGc2sCLHn_rGHx_D-67" edge="1">
          <mxGeometry relative="1" as="geometry">
            <Array as="points">
              <mxPoint x="3170" y="-170" />
              <mxPoint x="3170" y="-545" />
            </Array>
          </mxGeometry>
        </mxCell>
        <mxCell id="jpRytGc2sCLHn_rGHx_D-212" value="&lt;font style=&quot;font-size: 16px;&quot;&gt;Acusa/acusado&lt;/font&gt;" style="rhombus;whiteSpace=wrap;html=1;fillColor=#ffe6cc;strokeColor=#d79b00;" parent="1" vertex="1">
          <mxGeometry x="2881" y="-210" width="150" height="80" as="geometry" />
        </mxCell>
        <mxCell id="jpRytGc2sCLHn_rGHx_D-215" value="&lt;font style=&quot;font-size: 16px;&quot;&gt;N&lt;/font&gt;" style="text;html=1;strokeColor=none;fillColor=none;align=center;verticalAlign=middle;whiteSpace=wrap;rounded=0;" parent="1" vertex="1">
          <mxGeometry x="2830" y="-210" width="60" height="30" as="geometry" />
        </mxCell>
        <mxCell id="jpRytGc2sCLHn_rGHx_D-216" value="&lt;font style=&quot;font-size: 16px;&quot;&gt;1&lt;/font&gt;" style="text;html=1;strokeColor=none;fillColor=none;align=center;verticalAlign=middle;whiteSpace=wrap;rounded=0;" parent="1" vertex="1">
          <mxGeometry x="3031" y="-210" width="60" height="30" as="geometry" />
        </mxCell>
        <mxCell id="gpsHd1bj16_Dppfli6pp-3" style="edgeStyle=orthogonalEdgeStyle;rounded=0;orthogonalLoop=1;jettySize=auto;html=1;exitX=1;exitY=0.5;exitDx=0;exitDy=0;entryX=0.25;entryY=0;entryDx=0;entryDy=0;strokeColor=default;endArrow=none;endFill=0;" parent="1" source="gpsHd1bj16_Dppfli6pp-1" target="jpRytGc2sCLHn_rGHx_D-183" edge="1">
          <mxGeometry relative="1" as="geometry" />
        </mxCell>
        <mxCell id="gpsHd1bj16_Dppfli6pp-1" value="&lt;font style=&quot;font-size: 16px;&quot;&gt;denuncia_num_reports&lt;/font&gt;" style="ellipse;whiteSpace=wrap;html=1;fillColor=#f5f5f5;fontColor=#333333;strokeColor=#666666;fontStyle=0" parent="1" vertex="1">
          <mxGeometry x="2450" y="-560" width="200" height="110" as="geometry" />
        </mxCell>
      </root>
    </mxGraphModel>
  </diagram>
</mxfile>
